<svg width="20.188232" height="17.957031" viewBox="0 0 20.1882 17.957" fill="none" xmlns="http://www.w3.org/2000/svg" xmlns:xlink="http://www.w3.org/1999/xlink">
	<desc>
			Created with Pixso.
	</desc>
	<defs/>
	<path id="Vector 15" d="M9.31 16.5L2.81 10.39C0.65 8.36 0.38 5.01 2.2 2.67C4.17 0.13 8.12 0.55 9.51 3.45C9.7 3.86 10.28 3.86 10.48 3.45C11.86 0.55 15.81 0.13 17.78 2.67L18.09 3.06C19.74 5.18 19.5 8.21 17.54 10.05L10.67 16.5L10 16.95L9.99 16.95L9.31 16.5Z" fill="#C30303" fill-opacity="1.000000" fill-rule="evenodd"/>
	<path id="Vector 15" d="M2.81 10.39C0.65 8.36 0.38 5.01 2.2 2.67C4.17 0.13 8.12 0.55 9.51 3.45C9.7 3.86 10.28 3.86 10.48 3.45C11.86 0.55 15.81 0.13 17.78 2.67L18.09 3.06C19.74 5.18 19.5 8.21 17.54 10.05L10.67 16.5L10 16.95L9.99 16.95L9.31 16.5L2.81 10.39Z" stroke="#C30303" stroke-opacity="1.000000" stroke-width="2.000000"/>
</svg>
