<svg width="24.000000" height="24.000000" viewBox="0 0 24 24" fill="none" xmlns="http://www.w3.org/2000/svg" xmlns:xlink="http://www.w3.org/1999/xlink">
	<desc>
			Created with Pixso.
	</desc>
	<defs/>
	<path id="Vector" d="M12.02 24L11.97 24C5.37 24 0 18.62 0 12.02L0 11.97C0 5.37 5.37 0 11.97 0L12.02 0C18.62 0 24 5.37 24 11.97L24 12.02C24 18.62 18.62 24 12.02 24ZM11.97 0.81C5.81 0.81 0.81 5.81 0.81 11.97L0.81 12.02C0.81 18.18 5.81 23.18 11.97 23.18L12.02 23.18C18.18 23.18 23.18 18.18 23.18 12.02L23.18 11.97C23.18 5.81 18.18 0.81 12.02 0.81L11.97 0.81Z" fill="#A9B0BA" fill-opacity="1.000000" fill-rule="nonzero"/>
	<path id="Vector" d="M13.03 9.05L13.03 11.59L15.99 11.59L15.52 15.01L13.03 15.01L13.03 22.88C12.53 22.96 12.01 23 11.49 23C10.89 23 10.31 22.94 9.73 22.85L9.73 15.01L7 15.01L7 11.59L9.73 11.59L9.73 8.48C9.73 6.56 11.21 5 13.03 5L13.03 5C13.03 5 13.04 5 13.04 5L16 5L16 7.95L14.07 7.95C13.49 7.95 13.03 8.44 13.03 9.05L13.03 9.05Z" fill="#A9B0BA" fill-opacity="1.000000" fill-rule="nonzero"/>
</svg>
