<svg width="25" height="24" viewBox="0 0 25 24" fill="none" xmlns="http://www.w3.org/2000/svg">
<path d="M12.5264 24H12.4736C5.87143 24 0.5 18.6286 0.5 12.0264V11.9736C0.5 5.37142 5.87143 0 12.4736 0H12.5264C19.1286 0 24.5 5.37142 24.5 11.9736V12.0264C24.5 18.6286 19.1286 24 12.5264 24ZM12.4736 0.812375C6.31904 0.812375 1.31238 5.81904 1.31238 11.9736V12.0264C1.31238 18.181 6.31904 23.1876 12.4736 23.1876H12.5264C18.681 23.1876 23.6876 18.181 23.6876 12.0264V11.9736C23.6876 5.81904 18.681 0.812375 12.5264 0.812375H12.4736Z" fill="#A9B0BA"/>
<path d="M15.3964 5H8.40356C6.47165 5 4.89999 6.64147 4.89999 8.65919V15.3408C4.89999 17.3585 6.47165 19 8.40356 19H15.3964C17.3283 19 18.9 17.3585 18.9 15.3408V8.65919C18.9 6.64147 17.3283 5 15.3964 5ZM6.13594 8.65919C6.13594 7.35346 7.15336 6.29083 8.40356 6.29083H15.3964C16.6466 6.29083 17.664 7.35346 17.664 8.65919V15.3408C17.664 16.6465 16.6466 17.7092 15.3964 17.7092H8.40356C7.15336 17.7092 6.13594 16.6465 6.13594 15.3408V8.65919Z" fill="#A9B0BA"/>
<path d="M12.4 16C14.3294 16 15.9 14.4303 15.9 12.5C15.9 10.5697 14.3303 9 12.4 9C10.4697 9 8.89999 10.5697 8.89999 12.5C8.89999 14.4303 10.4697 16 12.4 16ZM12.4 10.3282C13.5981 10.3282 14.5726 11.3027 14.5726 12.5009C14.5726 13.699 13.5981 14.6735 12.4 14.6735C11.2019 14.6735 10.2274 13.699 10.2274 12.5009C10.2274 11.3027 11.2019 10.3282 12.4 10.3282Z" fill="#A9B0BA"/>
<path d="M15.9 9C16.4509 9 16.9 8.55186 16.9 8.00001C16.9 7.44816 16.4518 7 15.9 7C15.3481 7 14.9 7.44816 14.9 8.00001C14.9 8.55186 15.3481 9 15.9 9Z" fill="#A9B0BA"/>
</svg>
