<svg width="25" height="24" viewBox="0 0 25 24" fill="none" xmlns="http://www.w3.org/2000/svg">
<path d="M12.5264 24H12.4736C5.87143 24 0.5 18.6286 0.5 12.0264V11.9736C0.5 5.37143 5.87143 0 12.4736 0H12.5264C19.1286 0 24.5 5.37143 24.5 11.9736V12.0264C24.5 18.6286 19.1286 24 12.5264 24ZM12.4736 0.812375C6.31905 0.812375 1.31237 5.81905 1.31237 11.9736V12.0264C1.31237 18.181 6.31905 23.1876 12.4736 23.1876H12.5264C18.681 23.1876 23.6876 18.181 23.6876 12.0264V11.9736C23.6876 5.81905 18.681 0.812375 12.5264 0.812375H12.4736Z" fill="#A9B0BA"/>
<path d="M5.92098 8.57275C5.63982 8.28625 5.5 7.93162 5.5 7.50967C5.5 7.08772 5.64057 6.71748 5.92098 6.43016C6.20214 6.14366 6.56405 6 7.00748 6C7.4509 6 7.79861 6.14366 8.07902 6.43016C8.36018 6.71666 8.5 7.07705 8.5 7.50967C8.5 7.94229 8.35943 8.28625 8.07902 8.57275C7.79786 8.85925 7.44118 9.00291 7.00748 9.00291C6.57378 9.00291 6.20214 8.85925 5.92098 8.57275ZM8.26371 10.2162V19H5.73554V10.2162H8.26371Z" fill="#A9B0BA"/>
<path d="M17.6567 11.0137C18.2192 11.6895 18.5 12.6171 18.5 13.798V19H16.0496V14.1646C16.0496 13.5691 15.9099 13.1062 15.6314 12.7767C15.3528 12.4473 14.9774 12.2817 14.5073 12.2817C14.0372 12.2817 13.6617 12.4464 13.3831 12.7767C13.1046 13.1062 12.9649 13.5691 12.9649 14.1646V19H10.5V10.0955H12.9649V11.2764C13.2145 10.8828 13.551 10.5719 13.9738 10.343C14.3966 10.114 14.872 10 15.4009 10C16.3426 10 17.0951 10.3379 17.6567 11.0137Z" fill="#A9B0BA"/>
</svg>
