<svg width="25" height="24" viewBox="0 0 25 24" fill="none" xmlns="http://www.w3.org/2000/svg">
<path d="M12.5264 24H12.4736C5.87143 24 0.5 18.6286 0.5 12.0264V11.9736C0.5 5.37142 5.87143 0 12.4736 0H12.5264C19.1286 0 24.5 5.37142 24.5 11.9736V12.0264C24.5 18.6286 19.1286 24 12.5264 24ZM12.4736 0.812375C6.31904 0.812375 1.31238 5.81904 1.31238 11.9736V12.0264C1.31238 18.181 6.31904 23.1876 12.4736 23.1876H12.5264C18.681 23.1876 23.6876 18.181 23.6876 12.0264V11.9736C23.6876 5.81904 18.681 0.812375 12.5264 0.812375H12.4736Z" fill="#A9B0BA"/>
<path d="M18.3 9.14774V11.3884C17.9175 11.3502 17.4206 11.2612 16.8709 11.055C16.1531 10.7856 15.6188 10.4173 15.2688 10.1321V14.6609L15.2599 14.6467C15.2656 14.7365 15.2688 14.828 15.2688 14.9202C15.2688 17.1692 13.4817 19 11.2844 19C9.08717 19 7.29999 17.1692 7.29999 14.9202C7.29999 12.6713 9.08717 10.8397 11.2844 10.8397C11.4996 10.8397 11.7107 10.8571 11.917 10.8912V13.0995C11.7188 13.0271 11.5061 12.988 11.2844 12.988C10.2443 12.988 9.39735 13.8544 9.39735 14.9202C9.39735 15.9861 10.2443 16.8525 11.2844 16.8525C12.3246 16.8525 13.1715 15.9853 13.1715 14.9202C13.1715 14.8803 13.1707 14.8404 13.1682 14.8005V6H15.3549C15.363 6.18956 15.3703 6.3808 15.3785 6.57036C15.3931 6.94366 15.523 7.30201 15.7495 7.5955C16.0151 7.94054 16.4072 8.34126 16.9578 8.66136C17.4734 8.95984 17.9573 9.08871 18.3 9.14941V9.14774Z" fill="#A9B0BA"/>
</svg>
