<svg width="25" height="24" viewBox="0 0 25 24" fill="none" xmlns="http://www.w3.org/2000/svg">
<path d="M12.5264 24H12.4736C5.87143 24 0.5 18.6286 0.5 12.0264V11.9736C0.5 5.37142 5.87143 0 12.4736 0H12.5264C19.1286 0 24.5 5.37142 24.5 11.9736V12.0264C24.5 18.6286 19.1286 24 12.5264 24ZM12.4736 0.812375C6.31905 0.812375 1.31238 5.81904 1.31238 11.9736V12.0264C1.31238 18.181 6.31905 23.1876 12.4736 23.1876H12.5264C18.681 23.1876 23.6876 18.181 23.6876 12.0264V11.9736C23.6876 5.81904 18.681 0.812375 12.5264 0.812375H12.4736Z" fill="#A9B0BA"/>
<path d="M5.73368 6L11.1389 13.1702L5.70001 19H6.92444L11.6866 13.8962L15.534 19H19.7L13.991 11.4265L19.0537 6H17.8293L13.444 10.7005L9.90051 6H5.7345H5.73368ZM7.53377 6.89466H9.4472L17.8983 18.1054H15.9849L7.53377 6.89466Z" fill="#A9B0BA"/>
</svg>
