<svg width="25" height="24" viewBox="0 0 25 24" fill="none" xmlns="http://www.w3.org/2000/svg">
<path d="M12.5 24C5.88294 24 0.5 18.6171 0.5 12C0.5 5.38294 5.88294 0 12.5 0C19.1171 0 24.5 5.38294 24.5 12C24.5 18.6171 19.1171 24 12.5 24ZM12.5 0.814608C6.33261 0.814608 1.31461 5.8326 1.31461 12C1.31461 18.1674 6.33261 23.1854 12.5 23.1854C18.6674 23.1854 23.6854 18.1674 23.6854 12C23.6854 5.8326 18.6674 0.814608 12.5 0.814608Z" fill="#A9B0BA"/>
<path d="M19.9722 9.68073C19.88 8.83042 19.6818 7.89045 18.9521 7.39647C18.3869 7.0134 17.6441 6.99924 16.9506 7.00003C15.4846 7.00081 14.0178 7.00239 12.5519 7.00318C11.1418 7.00475 9.73181 7.00554 8.32179 7.00711C7.73277 7.0079 7.1602 6.96385 6.61314 7.2077C6.14341 7.41693 5.77568 7.81493 5.55439 8.25778C5.24754 8.87368 5.18338 9.57139 5.14636 10.2526C5.07808 11.493 5.08548 12.7366 5.16692 13.9763C5.22698 14.8809 5.37917 15.8806 6.1105 16.4572C6.75875 16.9677 7.67354 16.9929 8.51429 16.9936C11.183 16.996 13.8525 16.9984 16.522 16.9999C16.8642 17.0007 17.2212 16.9944 17.57 16.9582C18.2561 16.8875 18.9101 16.6995 19.3511 16.2133C19.7961 15.7233 19.9105 15.0413 19.9779 14.3955C20.1425 12.8286 20.1408 11.2468 19.9722 9.68073ZM11.0086 14.1965V9.80344L14.9869 11.9996L11.0086 14.1965Z" fill="#A9B0BA"/>
</svg>
