<svg width="20.000000" height="20.000000" viewBox="0 0 20 20" fill="none" xmlns="http://www.w3.org/2000/svg" xmlns:xlink="http://www.w3.org/1999/xlink">
	<desc>
			Created with Pixso.
	</desc>
	<defs/>
	<path id="icon" d="M16.72 2.21C16.54 2.07 16.32 2 16.09 2L3.9 2C3.67 2 3.45 2.07 3.27 2.21C3.09 2.36 2.97 2.56 2.92 2.78L2.01 6.89C2 6.92 2 6.96 2 7C2 7.53 2.21 8.03 2.58 8.41C2.96 8.78 3.46 9 4 9C4.53 9 5.03 8.78 5.41 8.41C5.44 8.38 5.47 8.35 5.5 8.32C5.52 8.35 5.55 8.38 5.58 8.41C5.96 8.78 6.46 9 7 9C7.53 9 8.03 8.78 8.41 8.41C8.44 8.38 8.47 8.35 8.5 8.32C8.52 8.35 8.55 8.38 8.58 8.41C8.96 8.78 9.46 9 10 9C10.53 9 11.03 8.78 11.41 8.41C11.44 8.38 11.47 8.35 11.5 8.32C11.52 8.35 11.55 8.38 11.58 8.41C11.96 8.78 12.46 9 13 9C13.53 9 14.03 8.78 14.41 8.41C14.44 8.38 14.47 8.35 14.5 8.32C14.52 8.35 14.55 8.38 14.58 8.41C14.96 8.78 15.46 9 16 9C16.53 9 17.03 8.78 17.41 8.41C17.78 8.03 18 7.53 18 7C18 6.96 17.99 6.92 17.98 6.89L17.07 2.78C17.02 2.56 16.9 2.36 16.72 2.21ZM6.29 7.7C6.1 7.51 6 7.26 6 7C6 6.72 5.77 6.5 5.5 6.5C5.22 6.5 5 6.72 5 7C5 7.26 4.89 7.51 4.7 7.7C4.51 7.89 4.26 8 4 8C3.73 8 3.48 7.89 3.29 7.7C3.11 7.53 3.01 7.29 3 7.04L3.9 3L16.09 3L16.99 7.04C16.98 7.29 16.88 7.53 16.7 7.7C16.51 7.89 16.26 8 16 8C15.73 8 15.48 7.89 15.29 7.7C15.1 7.51 15 7.26 15 7C15 6.72 14.77 6.5 14.5 6.5C14.22 6.5 14 6.72 14 7C14 7.26 13.89 7.51 13.7 7.7C13.51 7.89 13.26 8 13 8C12.73 8 12.48 7.89 12.29 7.7C12.1 7.51 12 7.26 12 7C12 6.72 11.77 6.5 11.5 6.5C11.22 6.5 11 6.72 11 7C11 7.26 10.89 7.51 10.7 7.7C10.51 7.89 10.26 8 10 8C9.73 8 9.48 7.89 9.29 7.7C9.1 7.51 9 7.26 9 7C9 6.72 8.77 6.5 8.5 6.5C8.22 6.5 8 6.72 8 7C8 7.26 7.89 7.51 7.7 7.7C7.51 7.89 7.26 8 7 8C6.73 8 6.48 7.89 6.29 7.7ZM4 10.5C4 10.22 3.77 10 3.5 10C3.22 10 3 10.22 3 10.5L3 16.5C3 16.89 3.15 17.27 3.43 17.56C3.72 17.84 4.1 18 4.5 18L15.5 18C15.89 18 16.27 17.84 16.56 17.56C16.84 17.27 17 16.89 17 16.5L17 10.5C17 10.22 16.77 10 16.5 10C16.22 10 16 10.22 16 10.5L16 16.5C16 16.63 15.94 16.75 15.85 16.85C15.75 16.94 15.63 17 15.5 17L4.5 17C4.36 17 4.24 16.94 4.14 16.85C4.05 16.75 4 16.63 4 16.5L4 10.5Z" fill="#676767" fill-opacity="1.000000" fill-rule="evenodd"/>
</svg>
