<svg width="24.000000" height="24.000000" viewBox="0 0 24 24" fill="none" xmlns="http://www.w3.org/2000/svg" xmlns:xlink="http://www.w3.org/1999/xlink">
	<desc>
			Created with Pixso.
	</desc>
	<defs>
		<clipPath id="clip470_2819">
			<rect id="Favorite_fill" rx="3.500000" width="23.000000" height="23.000000" transform="translate(0.500000 0.500000)" fill="white" fill-opacity="0"/>
		</clipPath>
	</defs>
	<rect id="Favorite_fill" rx="3.500000" width="23.000000" height="23.000000" transform="translate(0.500000 0.500000)" fill="#D20000" fill-opacity="1.000000"/>
	<g clip-path="url(#clip470_2819)">
		<path id="Vector 15" d="M11.33 17.39L6.78 13.28C5.22 11.87 5.03 9.48 6.35 7.84C7.8 6.04 10.62 6.35 11.64 8.41C11.79 8.71 12.2 8.71 12.35 8.41C13.37 6.35 16.19 6.04 17.64 7.84L17.79 8.02C19.03 9.56 18.85 11.8 17.38 13.12L12.66 17.39L12 17.82L11.99 17.82L11.33 17.39Z" fill="#FFFFFF" fill-opacity="1.000000" fill-rule="evenodd"/>
		<path id="Vector 15" d="M6.78 13.28C5.22 11.87 5.03 9.48 6.35 7.84C7.8 6.04 10.62 6.35 11.64 8.41C11.79 8.71 12.2 8.71 12.35 8.41C13.37 6.35 16.19 6.04 17.64 7.84L17.79 8.02C19.03 9.56 18.85 11.8 17.38 13.12L12.66 17.39L12 17.82L11.99 17.82L11.33 17.39L6.78 13.28Z" stroke="#FFFFFF" stroke-opacity="1.000000" stroke-width="2.000000"/>
	</g>
</svg>
