<svg width="20.000000" height="20.000000" viewBox="0 0 20 20" fill="none" xmlns="http://www.w3.org/2000/svg" xmlns:xlink="http://www.w3.org/1999/xlink">
	<desc>
			Created with Pixso.
	</desc>
	<defs/>
	<path id="icon" d="M14.7 5C14.09 5 13.5 5.24 13.07 5.67L12.6 6.14C12.41 6.33 12.09 6.33 11.89 6.14C11.7 5.94 11.7 5.62 11.89 5.43L12.36 4.96C12.98 4.34 13.82 4 14.7 4C15.57 4 16.41 4.34 17.03 4.96C17.65 5.58 18 6.42 18 7.29C18 8.17 17.65 9.01 17.03 9.63L14.06 12.6C13.47 13.19 12.68 13.53 11.85 13.56C11.02 13.6 10.21 13.32 9.58 12.78C8.95 12.24 8.54 11.48 8.45 10.65C8.35 9.83 8.57 9 9.05 8.33C9.22 8.1 9.53 8.05 9.75 8.22C9.98 8.38 10.03 8.69 9.86 8.91C9.52 9.38 9.37 9.96 9.44 10.54C9.51 11.11 9.79 11.64 10.23 12.02C10.67 12.39 11.24 12.59 11.82 12.56C12.39 12.54 12.94 12.3 13.35 11.89L16.32 8.92C16.75 8.49 17 7.91 17 7.29C17 6.69 16.75 6.1 16.32 5.67C15.89 5.24 15.31 5 14.7 5ZM10.76 7.71C10.32 7.33 9.75 7.13 9.18 7.16C8.6 7.18 8.05 7.42 7.64 7.83L4.67 10.8C4.24 11.23 4 11.82 4 12.43C4 13.04 4.24 13.62 4.67 14.06C5.1 14.49 5.68 14.73 6.3 14.73C6.9 14.73 7.49 14.49 7.92 14.06L8.5 13.48C8.7 13.28 9.01 13.28 9.21 13.48C9.4 13.67 9.4 13.99 9.21 14.18L8.63 14.76C8.01 15.38 7.17 15.73 6.3 15.73C5.42 15.73 4.58 15.38 3.96 14.76C3.34 14.14 3 13.3 3 12.43C3 11.55 3.34 10.71 3.96 10.1L6.93 7.12C7.52 6.54 8.31 6.19 9.14 6.16C9.97 6.13 10.78 6.41 11.41 6.95C12.04 7.49 12.45 8.24 12.54 9.07C12.64 9.89 12.42 10.73 11.94 11.4C11.77 11.62 11.46 11.67 11.24 11.51C11.01 11.34 10.97 11.03 11.13 10.81C11.47 10.34 11.62 9.76 11.55 9.19C11.48 8.61 11.2 8.08 10.76 7.71Z" fill="#737373" fill-opacity="1.000000" fill-rule="evenodd"/>
</svg>
