<svg width="20.000000" height="20.000000" viewBox="0 0 20 20" fill="none" xmlns="http://www.w3.org/2000/svg" xmlns:xlink="http://www.w3.org/1999/xlink">
	<desc>
			Created with Pixso.
	</desc>
	<defs/>
	<path id="icon" d="M3 5C2.44 5 2 5.44 2 6L2 15C2 15.55 2.44 16 3 16L17 16C17.55 16 18 15.55 18 15L18 6C18 5.44 17.55 5 17 5L3 5ZM16.82 6L3.17 6L3.31 6.11L8.92 10.61L8.92 10.61C9.23 10.86 9.61 11 10 11C10.38 11 10.76 10.86 11.07 10.61L11.07 10.61L16.68 6.11L16.82 6ZM3 7.14L3 15L17 15L17 7.14L11.7 11.39L11.7 11.39C11.21 11.78 10.61 12 10 12C9.38 12 8.78 11.78 8.29 11.39L3 7.14Z" fill="#676767" fill-opacity="1.000000" fill-rule="evenodd"/>
</svg>
