<svg width="20.000000" height="20.000000" viewBox="0 0 20 20" fill="none" xmlns="http://www.w3.org/2000/svg" xmlns:xlink="http://www.w3.org/1999/xlink">
	<desc>
			Created with Pixso.
	</desc>
	<defs/>
	<path id="icon" d="M14.0234 18.0039C13.313 18.0029 12.6157 17.8213 11.9968 17.4775L11.749 17.3291C8.1687 14.9141 5.08716 11.832 2.67261 8.25098C1.59741 6.59473 1.83105 4.41211 3.23193 3.02051L3.7478 2.50488C4.42383 1.83203 5.51709 1.83203 6.19312 2.50488L8.37549 4.69043C9.00317 5.32715 9.03662 6.32812 8.47778 7.00391L8.36621 7.12598C8.08203 7.41113 8.08228 7.87305 8.36646 8.1582L11.844 11.6367C11.9531 11.7461 12.0938 11.8174 12.2449 11.8418L12.3604 11.8506C12.5535 11.8506 12.739 11.7734 12.875 11.6367C13.5513 10.9629 14.6445 10.9629 15.321 11.6357L17.4949 13.8086C18.1682 14.4844 18.1685 15.5781 17.4954 16.2539L16.979 16.7705C16.1973 17.5586 15.1335 18.002 14.0234 18.0039ZM16.272 16.0635C15.2166 17.126 13.5623 17.3066 12.3022 16.4971L11.7854 16.1406C8.53467 13.8545 5.72729 10.9922 3.50293 7.69434C2.6936 6.43555 2.87524 4.78125 3.93872 3.72852L4.45435 3.21191C4.73975 2.92871 5.20093 2.92773 5.48633 3.21191L7.65234 5.38086L7.73511 5.47656C7.82446 5.59961 7.87354 5.75 7.87329 5.9043C7.87305 6.09766 7.79614 6.2832 7.65918 6.41895C6.98584 7.0957 6.98584 8.18848 7.65942 8.86426L11.1387 12.3447C11.8145 13.0176 12.907 13.0166 13.582 12.3438C13.8677 12.0596 14.3289 12.0596 14.6145 12.3438L16.7876 14.5156C17.0718 14.8008 17.072 15.2617 16.7881 15.5479L16.272 16.0635Z" clip-rule="evenodd" fill="#676767" fill-opacity="1.000000" fill-rule="evenodd"/>
</svg>
