<svg width="24.000000" height="24.000000" viewBox="0 0 24 24" fill="none" xmlns="http://www.w3.org/2000/svg" xmlns:xlink="http://www.w3.org/1999/xlink">
	<desc>
			Created with Pixso.
	</desc>
	<defs/>
	<rect id="Icon" rx="0.000000" width="23.000000" height="23.000000" transform="translate(0.500000 0.500000)" fill="#FFFFFF" fill-opacity="0"/>
	<path id="icon" d="M6.22986 6.22949C8.13629 4.32324 11.2272 4.32324 13.1337 6.22949C14.8639 7.95996 15.0238 10.666 13.6134 12.5762L16.5856 15.5498C16.8716 15.8359 16.8716 16.2993 16.5856 16.5854C16.2996 16.8711 15.836 16.8711 15.55 16.5854L12.5774 13.6128C10.6668 15.0234 7.96036 14.8638 6.22986 13.1333C4.32346 11.2271 4.32346 8.13623 6.22986 6.22949ZM7.26544 12.0977C5.93094 10.7632 5.93094 8.59961 7.26544 7.26514C8.59995 5.93066 10.7636 5.93066 12.0981 7.26514C13.4326 8.59961 13.4326 10.7632 12.0981 12.0977C10.7636 13.4321 8.59995 13.4321 7.26544 12.0977Z" clip-rule="evenodd" fill="#F9BF42" fill-opacity="1.000000" fill-rule="evenodd"/>
</svg>
