<svg width="56.307709" height="14.946289" viewBox="0 0 56.3077 14.9463" fill="none" xmlns="http://www.w3.org/2000/svg" xmlns:xlink="http://www.w3.org/1999/xlink">
	<desc>
			Created with Pixso.
	</desc>
	<defs/>
	<path id="logo" d="M17.86 0C21.81 0 24.94 2.61 24.94 7.47C24.94 12.32 21.81 14.94 17.86 14.94C13.89 14.94 10.79 12.3 10.79 7.47C10.79 2.61 13.89 0 17.86 0ZM40.19 5L36.2 5C35.96 4 35.12 3.43 33.89 3.43C31.9 3.43 30.76 4.92 30.76 7.44C30.76 10 31.82 11.5 33.86 11.5C35.63 11.5 36.52 10.69 36.56 9.43L33.91 9.43L33.91 6.62L40.36 6.62L40.36 8.63C40.36 12.61 37.64 14.94 33.83 14.94C29.58 14.94 26.7 12.1 26.7 7.5C26.7 2.7 29.88 0 33.8 0C37.24 0 39.89 2.08 40.19 5ZM49.23 0C53.18 0 56.3 2.61 56.3 7.47C56.3 12.32 53.18 14.94 49.23 14.94C45.25 14.94 42.15 12.3 42.15 7.47C42.15 2.61 45.25 0 49.23 0ZM9.82 14.74L0 14.74L0 0.2L3.95 0.2L3.95 11.56L9.82 11.56L9.82 14.74ZM17.86 11.5C19.83 11.5 20.88 10.08 20.88 7.47C20.88 4.85 19.83 3.43 17.86 3.43C15.91 3.43 14.85 4.85 14.85 7.47C14.85 10.08 15.91 11.5 17.86 11.5ZM49.23 11.5C51.19 11.5 52.24 10.08 52.24 7.47C52.24 4.85 51.19 3.43 49.23 3.43C47.27 3.43 46.21 4.85 46.21 7.47C46.21 10.08 47.27 11.5 49.23 11.5Z" fill="#282C32" fill-opacity="1.000000" fill-rule="evenodd"/>
</svg>
