<svg width="24.000000" height="24.000000" viewBox="0 0 24 24" fill="none" xmlns="http://www.w3.org/2000/svg" xmlns:xlink="http://www.w3.org/1999/xlink">
	<desc>
			Created with Pixso.
	</desc>
	<defs/>
	<path id="Vector" d="M12.02 24L11.97 24C5.37 24 0 18.62 0 12.02L0 11.97C0 5.37 5.37 0 11.97 0L12.02 0C18.62 0 24 5.37 24 11.97L24 12.02C24 18.62 18.62 24 12.02 24ZM11.97 0.81C5.81 0.81 0.81 5.81 0.81 11.97L0.81 12.02C0.81 18.18 5.81 23.18 11.97 23.18L12.02 23.18C18.18 23.18 23.18 18.18 23.18 12.02L23.18 11.97C23.18 5.81 18.18 0.81 12.02 0.81L11.97 0.81Z" fill="#A9B0BA" fill-opacity="1.000000" fill-rule="nonzero"/>
	<path id="Vector" d="M15.49 5L8.5 5C6.57 5 5 6.64 5 8.65L5 15.34C5 17.35 6.57 19 8.5 19L15.49 19C17.42 19 19 17.35 19 15.34L19 8.65C19 6.64 17.42 5 15.49 5ZM6.23 8.65C6.23 7.35 7.25 6.29 8.5 6.29L15.49 6.29C16.74 6.29 17.76 7.35 17.76 8.65L17.76 15.34C17.76 16.64 16.74 17.7 15.49 17.7L8.5 17.7C7.25 17.7 6.23 16.64 6.23 15.34L6.23 8.65Z" fill="#A9B0BA" fill-opacity="1.000000" fill-rule="nonzero"/>
	<path id="Vector" d="M12.5 16C14.42 16 16 14.43 16 12.5C16 10.56 14.43 9 12.5 9C10.56 9 9 10.56 9 12.5C9 14.43 10.56 16 12.5 16ZM12.5 10.32C13.69 10.32 14.67 11.3 14.67 12.5C14.67 13.69 13.69 14.67 12.5 14.67C11.3 14.67 10.32 13.69 10.32 12.5C10.32 11.3 11.3 10.32 12.5 10.32Z" fill="#A9B0BA" fill-opacity="1.000000" fill-rule="nonzero"/>
	<path id="Vector" d="M16 9C16.55 9 17 8.55 17 8C17 7.44 16.55 7 16 7C15.44 7 15 7.44 15 8C15 8.55 15.44 9 16 9Z" fill="#A9B0BA" fill-opacity="1.000000" fill-rule="nonzero"/>
</svg>
