<svg width="25" height="24" viewBox="0 0 25 24" fill="none" xmlns="http://www.w3.org/2000/svg">
<path d="M12.5264 24H12.4736C5.87143 24 0.5 18.6286 0.5 12.0264V11.9736C0.5 5.37143 5.87143 0 12.4736 0H12.5264C19.1286 0 24.5 5.37143 24.5 11.9736V12.0264C24.5 18.6286 19.1286 24 12.5264 24ZM12.4736 0.812375C6.31904 0.812375 1.31238 5.81905 1.31238 11.9736V12.0264C1.31238 18.181 6.31904 23.1876 12.4736 23.1876H12.5264C18.681 23.1876 23.6876 18.181 23.6876 12.0264V11.9736C23.6876 5.81905 18.681 0.812375 12.5264 0.812375H12.4736Z" fill="#A9B0BA"/>
<path fill-rule="evenodd" clip-rule="evenodd" d="M11.4419 15.1701C11.4281 15.2181 11.4151 15.2587 11.4046 15.2993C10.7912 17.7023 10.723 18.236 10.0926 19.3522C9.79199 19.8827 9.45323 20.3856 9.07873 20.8665C9.03648 20.9209 8.99667 20.9908 8.91218 20.9738C8.81957 20.9543 8.81226 20.8714 8.80252 20.7966C8.70178 20.0663 8.64573 19.3344 8.6701 18.5967C8.70178 17.6365 8.82039 17.3067 10.0584 12.101C10.0763 12.0214 10.056 11.9556 10.03 11.8841C9.7335 11.0847 9.67501 10.2732 9.93415 9.45103C10.4947 7.67518 12.5078 7.53951 12.8595 9.00422C13.0764 9.91002 12.5029 11.0961 12.0626 12.8492C11.6978 14.2952 13.4006 15.3237 14.8555 14.2676C16.1976 13.2944 16.7183 10.9612 16.6192 9.30724C16.4242 6.00981 12.8083 5.29735 10.515 6.35912C7.88535 7.57525 7.28744 10.8345 8.47513 12.3244C8.62542 12.5137 8.90894 12.6298 8.85938 12.8216C8.78302 13.1197 8.71559 13.4203 8.63273 13.7168C8.57099 13.9378 8.21923 14.0182 7.99583 13.9272C7.55796 13.7501 7.1932 13.4715 6.8975 13.1043C5.88934 11.8557 5.60095 9.38603 6.93405 7.29498C8.41095 4.9789 11.1584 4.04142 13.667 4.32575C16.6631 4.66613 18.5567 6.71332 18.9109 9.0359C19.0726 10.0936 18.9564 12.7021 17.4714 14.5462C15.7629 16.6649 12.9936 16.8055 11.7157 15.5048C11.6174 15.4049 11.5386 15.2887 11.4419 15.1693V15.1701Z" fill="#A9B0BA"/>
</svg>
