<svg width="25" height="24" viewBox="0 0 25 24" fill="none" xmlns="http://www.w3.org/2000/svg">
<path d="M12.5264 24H12.4736C5.87142 24 0.5 18.6286 0.5 12.0264V11.9736C0.5 5.37143 5.87142 0 12.4736 0H12.5264C19.1286 0 24.5 5.37143 24.5 11.9736V12.0264C24.5 18.6286 19.1286 24 12.5264 24ZM12.4736 0.812375C6.31904 0.812375 1.31238 5.81905 1.31238 11.9736V12.0264C1.31238 18.181 6.31904 23.1876 12.4736 23.1876H12.5264C18.681 23.1876 23.6876 18.181 23.6876 12.0264V11.9736C23.6876 5.81905 18.681 0.812375 12.5264 0.812375H12.4736Z" fill="#A9B0BA"/>
<path d="M16.2528 11.2168C18.3317 12.0917 19.3545 14.186 18.6761 16.3534C18.2139 17.8328 16.897 19.0278 15.4859 19.568C13.7068 20.2512 11.3176 20.2073 9.56289 19.4794C6.00387 18.005 5.17363 13.9106 5.52701 10.5043C5.77316 8.12001 6.76588 5.79582 8.95767 4.60081C10.6092 3.69664 12.723 3.56828 14.5314 3.94685C16.4088 4.34004 17.9328 5.45055 18.8565 7.13217C19.1416 7.64802 19.3723 8.21831 19.5446 8.85277C19.5494 8.87714 19.5397 8.90234 19.5153 8.90721L18.2082 9.25166C18.1838 9.25653 18.1586 9.2419 18.1538 9.2224C17.9572 8.47502 17.6476 7.81131 17.2195 7.23209C15.8824 5.41318 13.4298 4.92657 11.316 5.30514C8.82363 5.75275 7.44746 7.50262 7.04453 9.90562C6.71551 11.8569 6.81869 14.1178 7.71799 15.9172C8.47512 17.4315 9.84641 18.2812 11.498 18.5176C12.3875 18.6403 13.2576 18.6256 14.1081 18.468C15.3275 18.2422 16.6346 17.4355 17.1651 16.2803C17.5096 15.5329 17.5437 14.5849 17.1651 13.8424C16.949 13.42 16.6241 13.0804 16.1968 12.8253C16.1773 12.8107 16.1472 12.8204 16.1375 12.8399C16.1326 12.8448 16.1326 12.8497 16.1326 12.8545C16.083 13.2185 16.0002 13.5767 15.8767 13.9261C15.6996 14.4224 15.4445 14.8505 15.1049 15.199C13.9644 16.3737 11.9789 16.4769 10.6369 15.6312C9.56534 14.9529 9.1624 13.567 9.67338 12.4264C10.2039 11.2468 11.502 10.7359 12.7352 10.6766C13.433 10.6424 14.0773 10.6717 14.6719 10.7554C14.6963 10.7602 14.7158 10.7407 14.7215 10.7164V10.7017C14.667 10.4312 14.6037 10.2103 14.5249 10.038C14.1122 9.12898 13.1828 8.88771 12.2543 9.00551C11.6596 9.07943 11.1925 9.3597 10.8432 9.84144C10.8286 9.86094 10.8042 9.8658 10.7839 9.85118L9.67338 9.09404C9.65388 9.07942 9.64902 9.05506 9.66364 9.02988C10.2583 8.19395 11.0642 7.70732 12.0869 7.57491C12.9326 7.46199 13.8807 7.5944 14.6183 8.04202C15.724 8.72035 16.1171 9.93973 16.2154 11.1729C16.2252 11.1973 16.2349 11.2119 16.2496 11.2168H16.2528ZM10.9488 13.1437C10.7278 13.8862 11.2388 14.4712 11.9318 14.6474C12.905 14.8936 13.9863 14.6767 14.4485 13.6791C14.6305 13.2859 14.7385 12.8237 14.7727 12.2981C14.7727 12.2737 14.758 12.2542 14.7385 12.2542C14.0163 12.112 13.2738 12.082 12.5167 12.1559C11.9025 12.2201 11.1405 12.5003 10.9488 13.1437Z" fill="#A9B0BA"/>
</svg>
